<svg xmlns="http://www.w3.org/2000/svg" xmlns:xlink="http://www.w3.org/1999/xlink" viewBox="0 0 48 48"><defs><clipPath id="a"><polygon points="15.276 24.638 14.226 12.521 33.694 12.521 33.371 16.56 18.507 16.56 18.83 20.679 33.048 20.679 31.917 32.877 24 35.139 16.003 32.877 15.518 26.657 19.396 26.657 19.638 29.808 24 31.019 28.282 29.808 28.767 24.638 15.276 24.638" style="fill:none;clip-rule:evenodd"/></clipPath></defs><path d="M36.683,8.48159,34.2596,36.51252,24.00045,39.42064,13.74128,36.51252,11.31786,8.48159H36.683M39.38841,6H8.61246l.233,2.69533,2.4234,28.03093.14753,1.70661L13.0645,38.9l10.25917,2.90812L24.00045,42l.67678-.19185L34.93638,38.9l1.648-.46716.14753-1.70661L39.15537,8.69533,39.38841,6Z"/><path d="M34.25959,36.51253,36.683,8.4816H11.31786l2.42343,28.03094,10.25916,2.90811Z" style="fill:none;fill-rule:evenodd"/><g style="clip-path:url(#a)"><rect x="1.81804" y="0.1127" width="44.28403" height="47.4345"/></g></svg>