<svg xmlns="http://www.w3.org/2000/svg" xmlns:xlink="http://www.w3.org/1999/xlink" version="1.1" x="0px" y="0px" viewBox="0 0 100 100" enable-background="new 0 0 100 100" xml:space="preserve"><path d="M97.925,87.613c-1.719-2.012-2.979-3.623-3.984-6.504c-2.1-7.793,0.352-16.729,0.352-16.729l-0.01,0.01  c1.602-4.81,2.49-9.957,2.49-15.309c0-26.725-21.671-48.386-48.386-48.386C21.661,0.695,0,22.194,0,48.919  C0,69.594,12.979,87,31.232,94h-0.01c0,0,0.112,0.215,0.322,0.283c2.393,0.889,4.874,1.681,7.427,2.179  c9.888,2.236,28.942,4.8,55.477,0.356C101.041,95.686,101.168,91.413,97.925,87.613z M59.773,35.99c2.554,0,4.615,2.07,4.615,4.624  c0,2.549-2.062,4.62-4.615,4.62s-4.624-2.07-4.624-4.62C55.149,38.06,57.22,35.99,59.773,35.99z M39.948,35.99  c2.549,0,4.62,2.07,4.62,4.624c0,2.549-2.071,4.62-4.62,4.62c-2.554,0-4.624-2.07-4.624-4.62  C35.324,38.06,37.395,35.99,39.948,35.99z M65.824,62.778c-1.006,1.357-2.94,1.641-4.288,0.635  c-3.247-2.402-7.202-3.833-11.534-3.833c-4.326,0-8.287,1.431-11.539,3.833c-1.353,1.006-3.271,0.723-4.288-0.635  c-1.006-1.367-0.723-3.286,0.63-4.297c4.233-3.149,9.507-5.045,15.196-5.045c5.689,0,10.958,1.896,15.187,5.045  C66.547,59.492,66.83,61.411,65.824,62.778z"></path></svg>